<svg width="292" height="42" viewBox="0 0 292 42" fill="none" xmlns="http://www.w3.org/2000/svg">
<mask id="path-1-outside-1_1_59" maskUnits="userSpaceOnUse" x="0" y="0" width="292" height="42" fill="black">
<rect fill="white" width="292" height="42"/>
<path d="M20.6 24.1L27.55 39H24.1L17.3 24.4L6.2 24.45V39H3V4H13.5C17.1333 4 19.8 4.2 21.5 4.6C23.2 4.96667 24.45 5.86667 25.25 7.3C26.05 8.73333 26.45 11.0333 26.45 14.2C26.45 17.3 26.0833 19.5167 25.35 20.85C24.6167 22.1833 23.5 23.1 22 23.6L20.9 24L20.6 24.1ZM17.65 21.25C19.4833 21.15 20.8167 20.8667 21.65 20.4C22.0833 20.1333 22.4667 19.6 22.8 18.8C23.1667 18 23.35 16.4667 23.35 14.2C23.35 10.6333 22.8 8.58333 21.7 8.05C21.0667 7.68333 19.8833 7.41667 18.15 7.25L6.2 7.2V21.25H17.65Z"/>
<path d="M55.5305 38.15C54.0638 37.65 52.9471 36.7333 52.1805 35.4C51.4471 34.0333 51.0805 31.8167 51.0805 28.75V14.2C51.0805 11.1667 51.4138 8.95 52.0805 7.55C52.7805 6.15 54.0305 5.21667 55.8305 4.75C57.6638 4.28333 60.5638 4.03333 64.5305 4H72.3805V7.2H60.0805L59.4305 7.25C57.7971 7.38333 56.5971 7.63333 55.8305 8C54.7638 8.6 54.2305 10.6667 54.2305 14.2V19.8H72.3805V23.2H54.2305V28.75C54.2305 32.25 54.7971 34.3167 55.9305 34.95C56.6638 35.35 58.0138 35.6333 59.9805 35.8H72.3805V39L59.9305 38.95L57.6305 38.75L56.7305 38.55L55.5305 38.15Z"/>
<path d="M106.411 39H96.5109V4H109.311C111.078 4.16667 112.478 4.55 113.511 5.15C114.578 5.75 115.378 6.76667 115.911 8.2C116.444 9.6 116.711 11.6 116.711 14.2C116.711 15.7 116.561 17.2333 116.261 18.8L116.111 19.55L116.761 19.95C117.694 20.5167 118.444 21.45 119.011 22.75C119.611 24.0167 119.911 26.0333 119.911 28.8C119.911 32.4667 119.278 35.0667 118.011 36.6C117.678 37 117.161 37.3833 116.461 37.75C115.461 38.25 114.211 38.5833 112.711 38.75C111.244 38.8833 109.328 38.95 106.961 38.95H106.611L106.411 39ZM99.7109 18.5L113.011 18.7L113.211 17.8C113.411 17.0333 113.511 15.8333 113.511 14.2C113.511 12.7333 113.378 11.4833 113.111 10.45C112.878 9.41667 112.544 8.68333 112.111 8.25C111.811 7.95 111.194 7.7 110.261 7.5C109.328 7.26667 107.511 7.15 104.811 7.15C103.744 7.15 102.844 7.16667 102.111 7.2C101.378 7.23333 100.911 7.25 100.711 7.25L99.7109 7.3V18.5ZM99.7109 35.75H111.361L111.411 35.7L111.711 35.65C113.344 35.5167 114.478 35.2667 115.111 34.9C115.978 34.4667 116.511 33 116.711 30.5C116.744 30.0667 116.761 29.5 116.761 28.8C116.761 26.5333 116.578 25 116.211 24.2C115.878 23.3667 115.494 22.8333 115.061 22.6C114.761 22.4 114.178 22.2167 113.311 22.05L111.161 21.75H99.7109V35.75Z"/>
<path d="M146.641 30.3C146.808 32.2333 147.075 33.4667 147.441 34C147.675 34.4 148.491 34.8167 149.891 35.25C151.291 35.6833 153.291 35.9 155.891 35.9H165.891V39H155.891C154.358 39 152.858 38.9333 151.391 38.8C149.958 38.6667 148.858 38.4667 148.091 38.2C147.191 37.9333 146.408 37.4667 145.741 36.8C145.008 36.1333 144.458 35.2833 144.091 34.25C143.758 33.1833 143.541 31.75 143.441 29.95V4H146.641V30.3Z"/>
<path d="M190.12 4H193.22V39H190.12V4Z"/>
<path d="M220.51 36.8C219.777 36.1667 219.227 35.3167 218.86 34.25C218.527 33.15 218.31 31.7 218.21 29.9V4H221.36V30.25C221.493 32.05 221.777 33.3 222.21 34C222.443 34.4 223.26 34.8167 224.66 35.25C226.06 35.65 228.06 35.85 230.66 35.85C232.76 35.85 234.443 35.7167 235.71 35.45C236.977 35.1833 237.86 34.9 238.36 34.6C238.893 34.3 239.16 34.1167 239.16 34.05C239.56 33.3833 239.827 32.1333 239.96 30.3V4H243.11V29.95C243.043 31.75 242.827 33.2 242.46 34.3C242.093 35.3667 241.543 36.2167 240.81 36.85C240.21 37.3833 239.427 37.8333 238.46 38.2C237.693 38.4667 236.56 38.6667 235.06 38.8C233.593 38.9333 232.127 39 230.66 39C229.193 39 227.727 38.9333 226.26 38.8C224.793 38.6333 223.66 38.4167 222.86 38.15C221.893 37.85 221.11 37.4 220.51 36.8Z"/>
<path d="M286.291 4H289.091V39H286.091V10.2L278.591 23.15H275.691L268.191 10.2V39H265.141V4H267.941L269.091 5.65L277.141 19.65L285.191 5.65L286.291 4Z"/>
</mask>
<path d="M20.6 24.1L27.55 39H24.1L17.3 24.4L6.2 24.45V39H3V4H13.5C17.1333 4 19.8 4.2 21.5 4.6C23.2 4.96667 24.45 5.86667 25.25 7.3C26.05 8.73333 26.45 11.0333 26.45 14.2C26.45 17.3 26.0833 19.5167 25.35 20.85C24.6167 22.1833 23.5 23.1 22 23.6L20.9 24L20.6 24.1ZM17.65 21.25C19.4833 21.15 20.8167 20.8667 21.65 20.4C22.0833 20.1333 22.4667 19.6 22.8 18.8C23.1667 18 23.35 16.4667 23.35 14.2C23.35 10.6333 22.8 8.58333 21.7 8.05C21.0667 7.68333 19.8833 7.41667 18.15 7.25L6.2 7.2V21.25H17.65Z" fill="black"/>
<path d="M55.5305 38.15C54.0638 37.65 52.9471 36.7333 52.1805 35.4C51.4471 34.0333 51.0805 31.8167 51.0805 28.75V14.2C51.0805 11.1667 51.4138 8.95 52.0805 7.55C52.7805 6.15 54.0305 5.21667 55.8305 4.75C57.6638 4.28333 60.5638 4.03333 64.5305 4H72.3805V7.2H60.0805L59.4305 7.25C57.7971 7.38333 56.5971 7.63333 55.8305 8C54.7638 8.6 54.2305 10.6667 54.2305 14.2V19.8H72.3805V23.2H54.2305V28.75C54.2305 32.25 54.7971 34.3167 55.9305 34.95C56.6638 35.35 58.0138 35.6333 59.9805 35.8H72.3805V39L59.9305 38.95L57.6305 38.75L56.7305 38.55L55.5305 38.15Z" fill="black"/>
<path d="M106.411 39H96.5109V4H109.311C111.078 4.16667 112.478 4.55 113.511 5.15C114.578 5.75 115.378 6.76667 115.911 8.2C116.444 9.6 116.711 11.6 116.711 14.2C116.711 15.7 116.561 17.2333 116.261 18.8L116.111 19.55L116.761 19.95C117.694 20.5167 118.444 21.45 119.011 22.75C119.611 24.0167 119.911 26.0333 119.911 28.8C119.911 32.4667 119.278 35.0667 118.011 36.6C117.678 37 117.161 37.3833 116.461 37.75C115.461 38.25 114.211 38.5833 112.711 38.75C111.244 38.8833 109.328 38.95 106.961 38.95H106.611L106.411 39ZM99.7109 18.5L113.011 18.7L113.211 17.8C113.411 17.0333 113.511 15.8333 113.511 14.2C113.511 12.7333 113.378 11.4833 113.111 10.45C112.878 9.41667 112.544 8.68333 112.111 8.25C111.811 7.95 111.194 7.7 110.261 7.5C109.328 7.26667 107.511 7.15 104.811 7.15C103.744 7.15 102.844 7.16667 102.111 7.2C101.378 7.23333 100.911 7.25 100.711 7.25L99.7109 7.3V18.5ZM99.7109 35.75H111.361L111.411 35.7L111.711 35.65C113.344 35.5167 114.478 35.2667 115.111 34.9C115.978 34.4667 116.511 33 116.711 30.5C116.744 30.0667 116.761 29.5 116.761 28.8C116.761 26.5333 116.578 25 116.211 24.2C115.878 23.3667 115.494 22.8333 115.061 22.6C114.761 22.4 114.178 22.2167 113.311 22.05L111.161 21.75H99.7109V35.75Z" fill="black"/>
<path d="M146.641 30.3C146.808 32.2333 147.075 33.4667 147.441 34C147.675 34.4 148.491 34.8167 149.891 35.25C151.291 35.6833 153.291 35.9 155.891 35.9H165.891V39H155.891C154.358 39 152.858 38.9333 151.391 38.8C149.958 38.6667 148.858 38.4667 148.091 38.2C147.191 37.9333 146.408 37.4667 145.741 36.8C145.008 36.1333 144.458 35.2833 144.091 34.25C143.758 33.1833 143.541 31.75 143.441 29.95V4H146.641V30.3Z" fill="black"/>
<path d="M190.12 4H193.22V39H190.12V4Z" fill="black"/>
<path d="M220.51 36.8C219.777 36.1667 219.227 35.3167 218.86 34.25C218.527 33.15 218.31 31.7 218.21 29.9V4H221.36V30.25C221.493 32.05 221.777 33.3 222.21 34C222.443 34.4 223.26 34.8167 224.66 35.25C226.06 35.65 228.06 35.85 230.66 35.85C232.76 35.85 234.443 35.7167 235.71 35.45C236.977 35.1833 237.86 34.9 238.36 34.6C238.893 34.3 239.16 34.1167 239.16 34.05C239.56 33.3833 239.827 32.1333 239.96 30.3V4H243.11V29.95C243.043 31.75 242.827 33.2 242.46 34.3C242.093 35.3667 241.543 36.2167 240.81 36.85C240.21 37.3833 239.427 37.8333 238.46 38.2C237.693 38.4667 236.56 38.6667 235.06 38.8C233.593 38.9333 232.127 39 230.66 39C229.193 39 227.727 38.9333 226.26 38.8C224.793 38.6333 223.66 38.4167 222.86 38.15C221.893 37.85 221.11 37.4 220.51 36.8Z" fill="black"/>
<path d="M286.291 4H289.091V39H286.091V10.2L278.591 23.15H275.691L268.191 10.2V39H265.141V4H267.941L269.091 5.65L277.141 19.65L285.191 5.65L286.291 4Z" fill="black"/>
<path d="M20.6 24.1L27.55 39H24.1L17.3 24.4L6.2 24.45V39H3V4H13.5C17.1333 4 19.8 4.2 21.5 4.6C23.2 4.96667 24.45 5.86667 25.25 7.3C26.05 8.73333 26.45 11.0333 26.45 14.2C26.45 17.3 26.0833 19.5167 25.35 20.85C24.6167 22.1833 23.5 23.1 22 23.6L20.9 24L20.6 24.1ZM17.65 21.25C19.4833 21.15 20.8167 20.8667 21.65 20.4C22.0833 20.1333 22.4667 19.6 22.8 18.8C23.1667 18 23.35 16.4667 23.35 14.2C23.35 10.6333 22.8 8.58333 21.7 8.05C21.0667 7.68333 19.8833 7.41667 18.15 7.25L6.2 7.2V21.25H17.65Z" stroke="black" stroke-width="5" mask="url(#path-1-outside-1_1_59)"/>
<path d="M55.5305 38.15C54.0638 37.65 52.9471 36.7333 52.1805 35.4C51.4471 34.0333 51.0805 31.8167 51.0805 28.75V14.2C51.0805 11.1667 51.4138 8.95 52.0805 7.55C52.7805 6.15 54.0305 5.21667 55.8305 4.75C57.6638 4.28333 60.5638 4.03333 64.5305 4H72.3805V7.2H60.0805L59.4305 7.25C57.7971 7.38333 56.5971 7.63333 55.8305 8C54.7638 8.6 54.2305 10.6667 54.2305 14.2V19.8H72.3805V23.2H54.2305V28.75C54.2305 32.25 54.7971 34.3167 55.9305 34.95C56.6638 35.35 58.0138 35.6333 59.9805 35.8H72.3805V39L59.9305 38.95L57.6305 38.75L56.7305 38.55L55.5305 38.15Z" stroke="black" stroke-width="5" mask="url(#path-1-outside-1_1_59)"/>
<path d="M106.411 39H96.5109V4H109.311C111.078 4.16667 112.478 4.55 113.511 5.15C114.578 5.75 115.378 6.76667 115.911 8.2C116.444 9.6 116.711 11.6 116.711 14.2C116.711 15.7 116.561 17.2333 116.261 18.8L116.111 19.55L116.761 19.95C117.694 20.5167 118.444 21.45 119.011 22.75C119.611 24.0167 119.911 26.0333 119.911 28.8C119.911 32.4667 119.278 35.0667 118.011 36.6C117.678 37 117.161 37.3833 116.461 37.75C115.461 38.25 114.211 38.5833 112.711 38.75C111.244 38.8833 109.328 38.95 106.961 38.95H106.611L106.411 39ZM99.7109 18.5L113.011 18.7L113.211 17.8C113.411 17.0333 113.511 15.8333 113.511 14.2C113.511 12.7333 113.378 11.4833 113.111 10.45C112.878 9.41667 112.544 8.68333 112.111 8.25C111.811 7.95 111.194 7.7 110.261 7.5C109.328 7.26667 107.511 7.15 104.811 7.15C103.744 7.15 102.844 7.16667 102.111 7.2C101.378 7.23333 100.911 7.25 100.711 7.25L99.7109 7.3V18.5ZM99.7109 35.75H111.361L111.411 35.7L111.711 35.65C113.344 35.5167 114.478 35.2667 115.111 34.9C115.978 34.4667 116.511 33 116.711 30.5C116.744 30.0667 116.761 29.5 116.761 28.8C116.761 26.5333 116.578 25 116.211 24.2C115.878 23.3667 115.494 22.8333 115.061 22.6C114.761 22.4 114.178 22.2167 113.311 22.05L111.161 21.75H99.7109V35.75Z" stroke="black" stroke-width="5" mask="url(#path-1-outside-1_1_59)"/>
<path d="M146.641 30.3C146.808 32.2333 147.075 33.4667 147.441 34C147.675 34.4 148.491 34.8167 149.891 35.25C151.291 35.6833 153.291 35.9 155.891 35.9H165.891V39H155.891C154.358 39 152.858 38.9333 151.391 38.8C149.958 38.6667 148.858 38.4667 148.091 38.2C147.191 37.9333 146.408 37.4667 145.741 36.8C145.008 36.1333 144.458 35.2833 144.091 34.25C143.758 33.1833 143.541 31.75 143.441 29.95V4H146.641V30.3Z" stroke="black" stroke-width="5" mask="url(#path-1-outside-1_1_59)"/>
<path d="M190.12 4H193.22V39H190.12V4Z" stroke="black" stroke-width="5" mask="url(#path-1-outside-1_1_59)"/>
<path d="M220.51 36.8C219.777 36.1667 219.227 35.3167 218.86 34.25C218.527 33.15 218.31 31.7 218.21 29.9V4H221.36V30.25C221.493 32.05 221.777 33.3 222.21 34C222.443 34.4 223.26 34.8167 224.66 35.25C226.06 35.65 228.06 35.85 230.66 35.85C232.76 35.85 234.443 35.7167 235.71 35.45C236.977 35.1833 237.86 34.9 238.36 34.6C238.893 34.3 239.16 34.1167 239.16 34.05C239.56 33.3833 239.827 32.1333 239.96 30.3V4H243.11V29.95C243.043 31.75 242.827 33.2 242.46 34.3C242.093 35.3667 241.543 36.2167 240.81 36.85C240.21 37.3833 239.427 37.8333 238.46 38.2C237.693 38.4667 236.56 38.6667 235.06 38.8C233.593 38.9333 232.127 39 230.66 39C229.193 39 227.727 38.9333 226.26 38.8C224.793 38.6333 223.66 38.4167 222.86 38.15C221.893 37.85 221.11 37.4 220.51 36.8Z" stroke="black" stroke-width="5" mask="url(#path-1-outside-1_1_59)"/>
<path d="M286.291 4H289.091V39H286.091V10.2L278.591 23.15H275.691L268.191 10.2V39H265.141V4H267.941L269.091 5.65L277.141 19.65L285.191 5.65L286.291 4Z" stroke="black" stroke-width="5" mask="url(#path-1-outside-1_1_59)"/>
</svg>
